# This file uses centimeters as units for non-parametric coordinates.

mtllib Fence1.mtl
g default
v -0.059041 -0.170419 -0.152676
v -0.059041 -0.170419 -0.034594
v -0.059041 0.119840 -0.152676
v -0.059041 0.119840 -0.034594
v 0.059041 0.119840 -0.152676
v 0.059041 0.119840 -0.034594
v 0.059041 -0.170419 -0.152676
v 0.059041 -0.170419 -0.034594
v 0.024044 0.016901 -0.034594
v -0.024044 0.016901 -0.034594
v 0.024044 0.110619 -0.034594
v -0.024044 0.110619 -0.034594
v 0.024044 0.062532 0.188396
v -0.024044 0.062532 0.188396
v 0.024044 0.110619 0.188396
v -0.024044 0.110619 0.188396
v -0.094761 0.119840 -0.188396
v -0.094761 0.119840 0.001126
v 0.094762 0.119840 0.001126
v 0.094762 0.119840 -0.188396
v -0.094761 0.170419 -0.188396
v -0.094761 0.170419 0.001126
v 0.094762 0.170419 0.001126
v 0.094762 0.170419 -0.188396
vt 0.375000 0.000000
vt 0.625000 0.000000
vt 0.375000 0.250000
vt 0.625000 0.250000
vt 0.375000 0.500000
vt 0.625000 0.500000
vt 0.375000 0.750000
vt 0.625000 0.750000
vt 0.375000 1.000000
vt 0.625000 1.000000
vt 0.875000 0.000000
vt 0.875000 0.250000
vt 0.125000 0.000000
vt 0.125000 0.250000
vt 0.625000 0.000000
vt 0.875000 0.000000
vt 0.875000 0.250000
vt 0.625000 0.250000
vt 0.625000 0.000000
vt 0.875000 0.000000
vt 0.875000 0.250000
vt 0.625000 0.250000
vt 0.375000 0.250000
vt 0.625000 0.250000
vt 0.625000 0.500000
vt 0.375000 0.500000
vt 0.375000 0.250000
vt 0.625000 0.250000
vt 0.625000 0.500000
vt 0.375000 0.500000
vn -1.000000 0.000000 0.000000
vn -1.000000 0.000000 0.000000
vn -1.000000 0.000000 0.000000
vn -1.000000 0.000000 0.000000
vn 0.000000 1.000000 0.000000
vn 0.000000 1.000000 0.000000
vn 0.000000 1.000000 0.000000
vn 0.000000 1.000000 0.000000
vn 1.000000 0.000000 -0.000000
vn 1.000000 0.000000 -0.000000
vn 1.000000 0.000000 -0.000000
vn 1.000000 0.000000 -0.000000
vn 0.000000 -1.000000 0.000000
vn 0.000000 -1.000000 0.000000
vn 0.000000 -1.000000 0.000000
vn 0.000000 -1.000000 0.000000
vn 0.000000 0.000000 1.000000
vn 0.000000 0.000000 1.000000
vn 0.000000 0.000000 1.000000
vn 0.000000 0.000000 1.000000
vn -0.000000 0.000000 -1.000000
vn -0.000000 0.000000 -1.000000
vn -0.000000 0.000000 -1.000000
vn -0.000000 0.000000 -1.000000
vn 0.000000 -0.000000 1.000000
vn 0.000000 -0.000000 1.000000
vn 0.000000 -0.000000 1.000000
vn 0.000000 -0.000000 1.000000
vn 0.000000 0.000000 1.000000
vn 0.000000 0.000000 1.000000
vn 0.000000 0.000000 1.000000
vn 0.000000 0.000000 1.000000
vn 0.000000 0.000001 1.000000
vn 0.000000 0.000001 1.000000
vn 0.000000 0.000001 1.000000
vn 0.000000 0.000001 1.000000
vn 0.000000 0.000000 1.000000
vn 0.000000 0.000000 1.000000
vn 0.000000 0.000000 1.000000
vn 0.000000 0.000000 1.000000
vn 0.000000 -0.979698 0.200479
vn 0.000000 -0.979698 0.200479
vn 0.000000 -0.979698 0.200479
vn 0.000000 -0.979698 0.200479
vn 1.000000 0.000000 -0.000000
vn 1.000000 0.000000 -0.000000
vn 1.000000 0.000000 -0.000000
vn 1.000000 0.000000 -0.000000
vn 0.000000 1.000000 0.000000
vn 0.000000 1.000000 0.000000
vn 0.000000 1.000000 0.000000
vn 0.000000 1.000000 0.000000
vn -1.000000 0.000000 -0.000000
vn -1.000000 0.000000 -0.000000
vn -1.000000 0.000000 -0.000000
vn -1.000000 0.000000 -0.000000
vn -0.000000 -1.000000 0.000000
vn -0.000000 -1.000000 0.000000
vn -0.000000 -1.000000 0.000000
vn -0.000000 -1.000000 0.000000
vn 0.000000 -1.000000 0.000000
vn 0.000000 -1.000000 0.000000
vn 0.000000 -1.000000 0.000000
vn 0.000000 -1.000000 0.000000
vn 0.000000 -1.000000 -0.000000
vn 0.000000 -1.000000 -0.000000
vn 0.000000 -1.000000 -0.000000
vn 0.000000 -1.000000 -0.000000
vn 0.000000 -1.000000 0.000000
vn 0.000000 -1.000000 0.000000
vn 0.000000 -1.000000 0.000000
vn 0.000000 -1.000000 0.000000
vn -1.000000 0.000000 0.000000
vn -1.000000 0.000000 0.000000
vn -1.000000 0.000000 0.000000
vn -1.000000 0.000000 0.000000
vn 0.000000 0.000000 1.000000
vn 0.000000 0.000000 1.000000
vn 0.000000 0.000000 1.000000
vn 0.000000 0.000000 1.000000
vn 1.000000 0.000000 -0.000000
vn 1.000000 0.000000 -0.000000
vn 1.000000 0.000000 -0.000000
vn 1.000000 0.000000 -0.000000
vn -0.000000 0.000000 -1.000000
vn -0.000000 0.000000 -1.000000
vn -0.000000 0.000000 -1.000000
vn -0.000000 0.000000 -1.000000
s off
g pCube8 group6
usemtl initialShadingGroup
f 1/1/1 2/2/2 4/4/3 3/3/4
f 21/27/5 22/28/6 23/29/7 24/30/8
f 5/5/9 6/6/10 8/8/11 7/7/12
f 7/7/13 8/8/14 2/10/15 1/9/16
f 14/19/17 13/20/18 15/21/19 16/22/20
f 7/13/21 1/1/22 3/3/23 5/14/24
f 2/2/25 8/11/26 9/16/27 10/15/28
f 8/11/29 6/12/30 11/17/31 9/16/32
f 6/12/33 4/4/34 12/18/35 11/17/36
f 4/4/37 2/2/38 10/15/39 12/18/40
f 10/15/41 9/16/42 13/20/43 14/19/44
f 9/16/45 11/17/46 15/21/47 13/20/48
f 11/17/49 12/18/50 16/22/51 15/21/52
f 12/18/53 10/15/54 14/19/55 16/22/56
f 3/3/57 4/4/58 18/24/59 17/23/60
f 4/4/61 6/6/62 19/25/63 18/24/64
f 6/6/65 5/5/66 20/26/67 19/25/68
f 5/5/69 3/3/70 17/23/71 20/26/72
f 17/23/73 18/24/74 22/28/75 21/27/76
f 18/24/77 19/25/78 23/29/79 22/28/80
f 19/25/81 20/26/82 24/30/83 23/29/84
f 20/26/85 17/23/86 21/27/87 24/30/88
